<mxfile host="app.diagrams.net" modified="2023-10-31T12:48:05.736Z" agent="Mozilla/5.0 (X11; Ubuntu; Linux x86_64; rv:109.0) Gecko/20100101 Firefox/119.0" etag="hZMWFc4PmThFQfMHKMbZ" version="22.0.8" type="device">
  <diagram name="Page-1" id="Jrgt3sYGPVu8h39Zh5tt">
    <mxGraphModel dx="2284" dy="758" grid="1" gridSize="10" guides="1" tooltips="1" connect="1" arrows="1" fold="1" page="1" pageScale="1" pageWidth="850" pageHeight="1100" math="0" shadow="0">
      <root>
        <mxCell id="0" />
        <mxCell id="1" parent="0" />
        <mxCell id="rZgsUoCGz8kG7AOwi9W0-128" value="" style="rounded=0;whiteSpace=wrap;html=1;" vertex="1" parent="1">
          <mxGeometry x="-440" y="150" width="640" height="300" as="geometry" />
        </mxCell>
        <mxCell id="rZgsUoCGz8kG7AOwi9W0-122" value="TMForum API" style="rounded=1;whiteSpace=wrap;html=1;" vertex="1" parent="1">
          <mxGeometry x="30" y="180" width="120" height="60" as="geometry" />
        </mxCell>
        <mxCell id="rZgsUoCGz8kG7AOwi9W0-123" value="&lt;div&gt;ContextBroker&lt;/div&gt;&lt;div&gt;(Scorpio)&lt;br&gt;&lt;/div&gt;" style="rounded=1;whiteSpace=wrap;html=1;" vertex="1" parent="1">
          <mxGeometry x="30" y="300" width="120" height="60" as="geometry" />
        </mxCell>
        <mxCell id="rZgsUoCGz8kG7AOwi9W0-124" value="DLTAdapter" style="rounded=1;whiteSpace=wrap;html=1;" vertex="1" parent="1">
          <mxGeometry x="-396" y="300" width="120" height="60" as="geometry" />
        </mxCell>
        <mxCell id="rZgsUoCGz8kG7AOwi9W0-125" value="Blockchain-Connector" style="rounded=1;whiteSpace=wrap;html=1;" vertex="1" parent="1">
          <mxGeometry x="-220" y="360" width="120" height="60" as="geometry" />
        </mxCell>
        <mxCell id="rZgsUoCGz8kG7AOwi9W0-126" value="&lt;div&gt;Broker-Adapter&lt;/div&gt;&lt;div&gt;(Orion-LD-Adapter)&lt;/div&gt;" style="rounded=1;whiteSpace=wrap;html=1;" vertex="1" parent="1">
          <mxGeometry x="-220" y="240" width="120" height="60" as="geometry" />
        </mxCell>
        <mxCell id="rZgsUoCGz8kG7AOwi9W0-127" value="" style="endArrow=classic;startArrow=classic;html=1;rounded=0;entryX=0.5;entryY=1;entryDx=0;entryDy=0;" edge="1" parent="1" source="rZgsUoCGz8kG7AOwi9W0-123" target="rZgsUoCGz8kG7AOwi9W0-122">
          <mxGeometry width="50" height="50" relative="1" as="geometry">
            <mxPoint x="170" y="290" as="sourcePoint" />
            <mxPoint x="220" y="240" as="targetPoint" />
          </mxGeometry>
        </mxCell>
        <mxCell id="rZgsUoCGz8kG7AOwi9W0-129" value="" style="image;aspect=fixed;html=1;points=[];align=center;fontSize=12;image=img/lib/azure2/blockchain/Consortium.svg;" vertex="1" parent="1">
          <mxGeometry x="-370" y="516" width="68" height="68" as="geometry" />
        </mxCell>
        <mxCell id="rZgsUoCGz8kG7AOwi9W0-130" value="" style="endArrow=classic;html=1;rounded=0;exitX=0;exitY=0.5;exitDx=0;exitDy=0;entryX=1;entryY=0.5;entryDx=0;entryDy=0;" edge="1" parent="1" source="rZgsUoCGz8kG7AOwi9W0-123" target="rZgsUoCGz8kG7AOwi9W0-125">
          <mxGeometry width="50" height="50" relative="1" as="geometry">
            <mxPoint x="-20" y="570" as="sourcePoint" />
            <mxPoint x="30" y="520" as="targetPoint" />
            <Array as="points">
              <mxPoint x="-30" y="330" />
              <mxPoint x="-30" y="390" />
            </Array>
          </mxGeometry>
        </mxCell>
        <mxCell id="rZgsUoCGz8kG7AOwi9W0-131" value="notify about entity" style="edgeLabel;html=1;align=center;verticalAlign=middle;resizable=0;points=[];" vertex="1" connectable="0" parent="rZgsUoCGz8kG7AOwi9W0-130">
          <mxGeometry x="0.5282" y="-2" relative="1" as="geometry">
            <mxPoint x="24" y="2" as="offset" />
          </mxGeometry>
        </mxCell>
        <mxCell id="rZgsUoCGz8kG7AOwi9W0-132" value="" style="endArrow=classic;html=1;rounded=0;exitX=0.5;exitY=0;exitDx=0;exitDy=0;entryX=1;entryY=0.5;entryDx=0;entryDy=0;" edge="1" parent="1" source="rZgsUoCGz8kG7AOwi9W0-125" target="rZgsUoCGz8kG7AOwi9W0-124">
          <mxGeometry width="50" height="50" relative="1" as="geometry">
            <mxPoint x="-150" y="540" as="sourcePoint" />
            <mxPoint x="-100" y="490" as="targetPoint" />
            <Array as="points">
              <mxPoint x="-160" y="330" />
            </Array>
          </mxGeometry>
        </mxCell>
        <mxCell id="rZgsUoCGz8kG7AOwi9W0-133" value="publish on-chain event" style="edgeLabel;html=1;align=center;verticalAlign=middle;resizable=0;points=[];" vertex="1" connectable="0" parent="rZgsUoCGz8kG7AOwi9W0-132">
          <mxGeometry x="-0.137" y="-4" relative="1" as="geometry">
            <mxPoint x="13" y="4" as="offset" />
          </mxGeometry>
        </mxCell>
        <mxCell id="rZgsUoCGz8kG7AOwi9W0-134" value="" style="endArrow=classic;html=1;rounded=0;exitX=0.5;exitY=1;exitDx=0;exitDy=0;entryX=0.515;entryY=-0.015;entryDx=0;entryDy=0;entryPerimeter=0;" edge="1" parent="1" source="rZgsUoCGz8kG7AOwi9W0-124" target="rZgsUoCGz8kG7AOwi9W0-129">
          <mxGeometry width="50" height="50" relative="1" as="geometry">
            <mxPoint x="-440" y="560" as="sourcePoint" />
            <mxPoint x="-390" y="510" as="targetPoint" />
          </mxGeometry>
        </mxCell>
        <mxCell id="rZgsUoCGz8kG7AOwi9W0-135" value="write to blockchain" style="edgeLabel;html=1;align=center;verticalAlign=middle;resizable=0;points=[];" vertex="1" connectable="0" parent="rZgsUoCGz8kG7AOwi9W0-134">
          <mxGeometry x="-0.0576" y="5" relative="1" as="geometry">
            <mxPoint as="offset" />
          </mxGeometry>
        </mxCell>
        <mxCell id="rZgsUoCGz8kG7AOwi9W0-136" value="" style="rounded=0;whiteSpace=wrap;html=1;" vertex="1" parent="1">
          <mxGeometry x="-440" y="650" width="640" height="300" as="geometry" />
        </mxCell>
        <mxCell id="rZgsUoCGz8kG7AOwi9W0-137" value="TMForum API" style="rounded=1;whiteSpace=wrap;html=1;" vertex="1" parent="1">
          <mxGeometry x="30" y="680" width="120" height="60" as="geometry" />
        </mxCell>
        <mxCell id="rZgsUoCGz8kG7AOwi9W0-138" value="&lt;div&gt;ContextBroker&lt;/div&gt;&lt;div&gt;(Scorpio)&lt;br&gt;&lt;/div&gt;" style="rounded=1;whiteSpace=wrap;html=1;" vertex="1" parent="1">
          <mxGeometry x="30" y="800" width="120" height="60" as="geometry" />
        </mxCell>
        <mxCell id="rZgsUoCGz8kG7AOwi9W0-139" value="DLTAdapter" style="rounded=1;whiteSpace=wrap;html=1;" vertex="1" parent="1">
          <mxGeometry x="-396" y="800" width="120" height="60" as="geometry" />
        </mxCell>
        <mxCell id="rZgsUoCGz8kG7AOwi9W0-140" value="Blockchain-Connector" style="rounded=1;whiteSpace=wrap;html=1;" vertex="1" parent="1">
          <mxGeometry x="-190" y="720" width="120" height="60" as="geometry" />
        </mxCell>
        <mxCell id="rZgsUoCGz8kG7AOwi9W0-141" value="&lt;div&gt;Broker-Adapter&lt;/div&gt;&lt;div&gt;(Orion-LD-Adapter)&lt;/div&gt;" style="rounded=1;whiteSpace=wrap;html=1;" vertex="1" parent="1">
          <mxGeometry x="-190" y="860" width="120" height="60" as="geometry" />
        </mxCell>
        <mxCell id="rZgsUoCGz8kG7AOwi9W0-142" value="" style="endArrow=classic;startArrow=classic;html=1;rounded=0;entryX=0.5;entryY=1;entryDx=0;entryDy=0;" edge="1" parent="1" source="rZgsUoCGz8kG7AOwi9W0-138" target="rZgsUoCGz8kG7AOwi9W0-137">
          <mxGeometry width="50" height="50" relative="1" as="geometry">
            <mxPoint x="170" y="790" as="sourcePoint" />
            <mxPoint x="220" y="740" as="targetPoint" />
          </mxGeometry>
        </mxCell>
        <mxCell id="rZgsUoCGz8kG7AOwi9W0-148" value="" style="endArrow=classic;html=1;rounded=0;exitX=0.544;exitY=1.088;exitDx=0;exitDy=0;exitPerimeter=0;" edge="1" parent="1" source="rZgsUoCGz8kG7AOwi9W0-129" target="rZgsUoCGz8kG7AOwi9W0-139">
          <mxGeometry width="50" height="50" relative="1" as="geometry">
            <mxPoint x="-180" y="590" as="sourcePoint" />
            <mxPoint x="-130" y="540" as="targetPoint" />
          </mxGeometry>
        </mxCell>
        <mxCell id="rZgsUoCGz8kG7AOwi9W0-149" value="receive event" style="edgeLabel;html=1;align=center;verticalAlign=middle;resizable=0;points=[];" vertex="1" connectable="0" parent="rZgsUoCGz8kG7AOwi9W0-148">
          <mxGeometry x="-0.0288" y="2" relative="1" as="geometry">
            <mxPoint as="offset" />
          </mxGeometry>
        </mxCell>
        <mxCell id="rZgsUoCGz8kG7AOwi9W0-150" value="" style="endArrow=classic;html=1;rounded=0;" edge="1" parent="1" target="rZgsUoCGz8kG7AOwi9W0-122">
          <mxGeometry width="50" height="50" relative="1" as="geometry">
            <mxPoint x="90" y="70" as="sourcePoint" />
            <mxPoint x="130" y="20" as="targetPoint" />
          </mxGeometry>
        </mxCell>
        <mxCell id="rZgsUoCGz8kG7AOwi9W0-151" value="create ProductOffering" style="edgeLabel;html=1;align=center;verticalAlign=middle;resizable=0;points=[];" vertex="1" connectable="0" parent="rZgsUoCGz8kG7AOwi9W0-150">
          <mxGeometry x="-0.2182" y="2" relative="1" as="geometry">
            <mxPoint as="offset" />
          </mxGeometry>
        </mxCell>
        <mxCell id="rZgsUoCGz8kG7AOwi9W0-152" value="" style="endArrow=classic;html=1;rounded=0;entryX=0;entryY=0.5;entryDx=0;entryDy=0;exitX=1;exitY=0.5;exitDx=0;exitDy=0;" edge="1" parent="1" source="rZgsUoCGz8kG7AOwi9W0-139" target="rZgsUoCGz8kG7AOwi9W0-140">
          <mxGeometry width="50" height="50" relative="1" as="geometry">
            <mxPoint x="-270" y="830" as="sourcePoint" />
            <mxPoint x="-230" y="1020" as="targetPoint" />
            <Array as="points">
              <mxPoint x="-250" y="830" />
              <mxPoint x="-250" y="750" />
            </Array>
          </mxGeometry>
        </mxCell>
        <mxCell id="rZgsUoCGz8kG7AOwi9W0-153" value="notify connector" style="edgeLabel;html=1;align=center;verticalAlign=middle;resizable=0;points=[];" vertex="1" connectable="0" parent="rZgsUoCGz8kG7AOwi9W0-152">
          <mxGeometry x="-0.0959" y="2" relative="1" as="geometry">
            <mxPoint as="offset" />
          </mxGeometry>
        </mxCell>
        <mxCell id="rZgsUoCGz8kG7AOwi9W0-155" value="" style="endArrow=classic;html=1;rounded=0;exitX=0.5;exitY=0;exitDx=0;exitDy=0;entryX=0.5;entryY=1;entryDx=0;entryDy=0;" edge="1" parent="1" source="rZgsUoCGz8kG7AOwi9W0-140" target="rZgsUoCGz8kG7AOwi9W0-123">
          <mxGeometry width="50" height="50" relative="1" as="geometry">
            <mxPoint x="-90" y="560" as="sourcePoint" />
            <mxPoint x="-40" y="510" as="targetPoint" />
            <Array as="points">
              <mxPoint x="-130" y="640" />
              <mxPoint x="-130" y="550" />
              <mxPoint x="90" y="550" />
            </Array>
          </mxGeometry>
        </mxCell>
        <mxCell id="rZgsUoCGz8kG7AOwi9W0-156" value="get Entity" style="edgeLabel;html=1;align=center;verticalAlign=middle;resizable=0;points=[];" vertex="1" connectable="0" parent="rZgsUoCGz8kG7AOwi9W0-155">
          <mxGeometry x="-0.1034" y="-3" relative="1" as="geometry">
            <mxPoint as="offset" />
          </mxGeometry>
        </mxCell>
        <mxCell id="rZgsUoCGz8kG7AOwi9W0-157" value="" style="endArrow=classic;html=1;rounded=0;exitX=0.5;exitY=1;exitDx=0;exitDy=0;entryX=0.5;entryY=0;entryDx=0;entryDy=0;" edge="1" parent="1" source="rZgsUoCGz8kG7AOwi9W0-140" target="rZgsUoCGz8kG7AOwi9W0-141">
          <mxGeometry width="50" height="50" relative="1" as="geometry">
            <mxPoint x="290" y="730" as="sourcePoint" />
            <mxPoint x="340" y="680" as="targetPoint" />
          </mxGeometry>
        </mxCell>
        <mxCell id="rZgsUoCGz8kG7AOwi9W0-158" value="create off-chain" style="edgeLabel;html=1;align=center;verticalAlign=middle;resizable=0;points=[];" vertex="1" connectable="0" parent="rZgsUoCGz8kG7AOwi9W0-157">
          <mxGeometry x="-0.1" y="-3" relative="1" as="geometry">
            <mxPoint as="offset" />
          </mxGeometry>
        </mxCell>
        <mxCell id="rZgsUoCGz8kG7AOwi9W0-159" value="" style="endArrow=classic;html=1;rounded=0;exitX=1;exitY=0.5;exitDx=0;exitDy=0;entryX=0.5;entryY=1;entryDx=0;entryDy=0;" edge="1" parent="1" source="rZgsUoCGz8kG7AOwi9W0-141" target="rZgsUoCGz8kG7AOwi9W0-138">
          <mxGeometry width="50" height="50" relative="1" as="geometry">
            <mxPoint x="430" y="770" as="sourcePoint" />
            <mxPoint x="480" y="720" as="targetPoint" />
            <Array as="points">
              <mxPoint x="90" y="890" />
            </Array>
          </mxGeometry>
        </mxCell>
        <mxCell id="rZgsUoCGz8kG7AOwi9W0-160" value="persist entity" style="edgeLabel;html=1;align=center;verticalAlign=middle;resizable=0;points=[];" vertex="1" connectable="0" parent="rZgsUoCGz8kG7AOwi9W0-159">
          <mxGeometry x="0.2947" relative="1" as="geometry">
            <mxPoint as="offset" />
          </mxGeometry>
        </mxCell>
      </root>
    </mxGraphModel>
  </diagram>
</mxfile>
